<mxfile host="app.diagrams.net" modified="2020-09-29T07:14:26.970Z" agent="5.0 (Windows NT 10.0; WOW64) AppleWebKit/537.36 (KHTML, like Gecko) Chrome/85.0.4183.102 Safari/537.36" etag="j7zN6dQPSyMuIEFCweYZ" version="13.7.6" type="github">
  <diagram id="C5RBs43oDa-KdzZeNtuy" name="Page-1">
    <mxGraphModel dx="809" dy="752" grid="1" gridSize="10" guides="1" tooltips="1" connect="1" arrows="1" fold="1" page="1" pageScale="1" pageWidth="827" pageHeight="1169" math="0" shadow="0">
      <root>
        <mxCell id="WIyWlLk6GJQsqaUBKTNV-0" />
        <mxCell id="WIyWlLk6GJQsqaUBKTNV-1" parent="WIyWlLk6GJQsqaUBKTNV-0" />
        <mxCell id="K3P9-Hcz5UOkRJEYKGVa-91" style="edgeStyle=orthogonalEdgeStyle;rounded=0;orthogonalLoop=1;jettySize=auto;html=1;entryX=0.5;entryY=0;entryDx=0;entryDy=0;exitX=1;exitY=0.5;exitDx=0;exitDy=0;" edge="1" parent="WIyWlLk6GJQsqaUBKTNV-1" source="K3P9-Hcz5UOkRJEYKGVa-80" target="K3P9-Hcz5UOkRJEYKGVa-69">
          <mxGeometry relative="1" as="geometry">
            <Array as="points">
              <mxPoint x="510" y="275" />
              <mxPoint x="510" y="180" />
              <mxPoint x="150" y="180" />
            </Array>
          </mxGeometry>
        </mxCell>
        <mxCell id="K3P9-Hcz5UOkRJEYKGVa-92" style="edgeStyle=orthogonalEdgeStyle;rounded=0;orthogonalLoop=1;jettySize=auto;html=1;exitX=1;exitY=0.5;exitDx=0;exitDy=0;entryX=0.5;entryY=0;entryDx=0;entryDy=0;" edge="1" parent="WIyWlLk6GJQsqaUBKTNV-1" source="K3P9-Hcz5UOkRJEYKGVa-70" target="K3P9-Hcz5UOkRJEYKGVa-79">
          <mxGeometry relative="1" as="geometry" />
        </mxCell>
        <mxCell id="K3P9-Hcz5UOkRJEYKGVa-96" value="" style="group" vertex="1" connectable="0" parent="WIyWlLk6GJQsqaUBKTNV-1">
          <mxGeometry x="60" y="230" width="180" height="90" as="geometry" />
        </mxCell>
        <mxCell id="K3P9-Hcz5UOkRJEYKGVa-69" value="Super" style="shape=table;html=1;whiteSpace=wrap;startSize=30;container=1;collapsible=0;childLayout=tableLayout;fixedRows=1;rowLines=0;fontStyle=1;align=center;" vertex="1" parent="K3P9-Hcz5UOkRJEYKGVa-96">
          <mxGeometry width="180" height="90" as="geometry" />
        </mxCell>
        <mxCell id="K3P9-Hcz5UOkRJEYKGVa-70" value="" style="shape=partialRectangle;html=1;whiteSpace=wrap;collapsible=0;dropTarget=0;pointerEvents=0;fillColor=none;top=0;left=0;bottom=1;right=0;points=[[0,0.5],[1,0.5]];portConstraint=eastwest;" vertex="1" parent="K3P9-Hcz5UOkRJEYKGVa-69">
          <mxGeometry y="30" width="180" height="30" as="geometry" />
        </mxCell>
        <mxCell id="K3P9-Hcz5UOkRJEYKGVa-71" value="prototype" style="shape=partialRectangle;html=1;whiteSpace=wrap;connectable=0;fillColor=none;top=0;left=0;bottom=0;right=0;overflow=hidden;" vertex="1" parent="K3P9-Hcz5UOkRJEYKGVa-70">
          <mxGeometry width="60" height="30" as="geometry" />
        </mxCell>
        <mxCell id="K3P9-Hcz5UOkRJEYKGVa-72" value="&lt;span style=&quot;text-align: center&quot;&gt;Super.prototype&lt;/span&gt;" style="shape=partialRectangle;html=1;whiteSpace=wrap;connectable=0;fillColor=none;top=0;left=0;bottom=0;right=0;align=left;spacingLeft=6;overflow=hidden;" vertex="1" parent="K3P9-Hcz5UOkRJEYKGVa-70">
          <mxGeometry x="60" width="120" height="30" as="geometry" />
        </mxCell>
        <mxCell id="K3P9-Hcz5UOkRJEYKGVa-97" value="&lt;table border=&quot;1&quot; width=&quot;100%&quot; cellpadding=&quot;4&quot; style=&quot;width: 100% ; height: 100% ; border-collapse: collapse&quot;&gt;&lt;tbody&gt;&lt;tr&gt;&lt;th align=&quot;center&quot;&gt;&lt;b&gt;Title&lt;/b&gt;&lt;/th&gt;&lt;/tr&gt;&lt;/tbody&gt;&lt;/table&gt;" style="text;html=1;strokeColor=none;fillColor=none;overflow=fill;" vertex="1" parent="WIyWlLk6GJQsqaUBKTNV-1">
          <mxGeometry x="60" y="350" width="160" height="140" as="geometry" />
        </mxCell>
        <mxCell id="K3P9-Hcz5UOkRJEYKGVa-99" value="" style="group" vertex="1" connectable="0" parent="WIyWlLk6GJQsqaUBKTNV-1">
          <mxGeometry x="310" y="270" width="180" height="90" as="geometry" />
        </mxCell>
        <mxCell id="K3P9-Hcz5UOkRJEYKGVa-79" value="Super.prototype" style="shape=table;html=1;whiteSpace=wrap;startSize=30;container=1;collapsible=0;childLayout=tableLayout;fixedRows=1;rowLines=0;fontStyle=1;align=center;" vertex="1" parent="K3P9-Hcz5UOkRJEYKGVa-99">
          <mxGeometry width="180" height="90" as="geometry" />
        </mxCell>
        <mxCell id="K3P9-Hcz5UOkRJEYKGVa-80" value="" style="shape=partialRectangle;html=1;whiteSpace=wrap;collapsible=0;dropTarget=0;pointerEvents=0;fillColor=none;top=0;left=0;bottom=1;right=0;points=[[0,0.5],[1,0.5]];portConstraint=eastwest;" vertex="1" parent="K3P9-Hcz5UOkRJEYKGVa-79">
          <mxGeometry y="30" width="180" height="30" as="geometry" />
        </mxCell>
        <mxCell id="K3P9-Hcz5UOkRJEYKGVa-81" value="constructor" style="shape=partialRectangle;html=1;whiteSpace=wrap;connectable=0;fillColor=none;top=0;left=0;bottom=0;right=0;overflow=hidden;container=1;" vertex="1" parent="K3P9-Hcz5UOkRJEYKGVa-80">
          <mxGeometry width="87" height="30" as="geometry">
            <mxRectangle width="88" height="30" as="alternateBounds" />
          </mxGeometry>
        </mxCell>
        <mxCell id="K3P9-Hcz5UOkRJEYKGVa-82" value="&lt;span style=&quot;text-align: center&quot;&gt;Super&lt;/span&gt;" style="shape=partialRectangle;html=1;whiteSpace=wrap;connectable=0;fillColor=none;top=0;left=0;bottom=0;right=0;align=left;spacingLeft=6;overflow=hidden;" vertex="1" parent="K3P9-Hcz5UOkRJEYKGVa-80">
          <mxGeometry x="87" width="93" height="30" as="geometry" />
        </mxCell>
      </root>
    </mxGraphModel>
  </diagram>
</mxfile>
